<svg xmlns="http://www.w3.org/2000/svg" xmlns:xlink="http://www.w3.org/1999/xlink" width="200" zoomAndPan="magnify" viewBox="0 0 150 149.999998" height="200" preserveAspectRatio="xMidYMid meet" version="1.0"><path fill="#ffffff" d="M 46.707031 78.1875 Z M 63.261719 64.273438 Z M 75.074219 84.714844 C 73.832031 84.714844 72.898438 83.703125 72.898438 82.539062 C 72.898438 81.296875 73.832031 80.363281 75.074219 80.363281 C 77.328125 80.363281 79.347656 79.429688 80.824219 78.03125 L 80.902344 77.875 C 82.457031 76.398438 83.390625 74.300781 83.390625 72.046875 C 83.390625 69.714844 82.457031 67.695312 80.902344 66.140625 C 79.425781 64.664062 77.328125 63.730469 75.074219 63.730469 C 71.65625 63.730469 68.546875 65.128906 66.371094 67.304688 C 64.117188 69.558594 62.714844 72.667969 62.714844 76.011719 C 62.714844 80.984375 64.894531 83.394531 67.921875 86.65625 L 68.625 87.433594 C 71.34375 90.386719 73.519531 93.886719 74.996094 97.695312 C 76.160156 100.726562 76.9375 104.066406 77.171875 107.410156 L 91.238281 107.410156 C 91.472656 102.28125 92.5625 97.382812 94.347656 92.71875 C 96.445312 87.28125 99.554688 82.382812 103.363281 78.1875 L 103.519531 78.03125 C 103.984375 77.488281 104.453125 77.019531 104.917969 76.554688 C 105.386719 76.089844 105.929688 75.621094 106.394531 75.15625 C 109.894531 71.347656 112.613281 66.839844 114.554688 62.019531 C 116.34375 57.28125 117.355469 52.074219 117.355469 46.710938 C 117.355469 34.972656 112.613281 24.402344 104.996094 16.789062 C 97.300781 9.09375 86.730469 4.351562 75.074219 4.351562 C 63.339844 4.351562 52.769531 9.09375 45.152344 16.789062 C 37.457031 24.402344 32.714844 34.972656 32.714844 46.710938 C 32.714844 52.074219 33.726562 57.28125 35.59375 62.019531 C 37.457031 66.839844 40.253906 71.347656 43.753906 75.15625 C 44.21875 75.621094 44.683594 76.089844 45.230469 76.554688 C 45.695312 77.019531 46.160156 77.566406 46.707031 78.1875 C 50.59375 82.382812 53.625 87.28125 55.722656 92.71875 C 57.507812 97.382812 58.597656 102.28125 58.832031 107.410156 L 72.820312 107.410156 C 72.585938 104.535156 71.964844 101.8125 70.953125 99.25 C 69.632812 95.984375 67.769531 92.953125 65.4375 90.3125 L 64.738281 89.613281 C 61.085938 85.570312 58.363281 82.695312 58.363281 76.011719 C 58.363281 71.425781 60.230469 67.304688 63.261719 64.273438 C 66.292969 61.242188 70.410156 59.378906 75.074219 59.378906 C 78.570312 59.378906 81.679688 60.777344 84.011719 63.109375 C 86.265625 65.363281 87.742188 68.550781 87.742188 72.046875 C 87.742188 75.542969 86.265625 78.730469 84.011719 80.984375 L 83.855469 81.140625 C 81.601562 83.316406 78.492188 84.714844 75.074219 84.714844 Z M 63.414062 49.121094 C 64.039062 50.207031 63.726562 51.527344 62.640625 52.074219 C 61.628906 52.695312 60.308594 52.382812 59.683594 51.296875 L 47.40625 30 C 46.785156 28.988281 47.171875 27.667969 48.183594 27.046875 C 49.191406 26.425781 50.515625 26.8125 51.136719 27.824219 Z M 90.386719 51.296875 C 89.839844 52.382812 88.519531 52.695312 87.429688 52.074219 C 86.421875 51.527344 86.03125 50.207031 86.65625 49.121094 L 98.933594 27.824219 C 99.554688 26.8125 100.878906 26.425781 101.964844 27.046875 C 102.976562 27.667969 103.285156 28.988281 102.742188 30 Z M 77.25 46.632812 C 77.25 47.796875 76.238281 48.808594 75.074219 48.808594 C 73.832031 48.808594 72.898438 47.796875 72.898438 46.632812 L 72.898438 21.996094 C 72.898438 20.828125 73.832031 19.820312 75.074219 19.820312 C 76.238281 19.820312 77.25 20.828125 77.25 21.996094 Z M 77.25 46.632812 " fill-opacity="1" fill-rule="evenodd"/><path fill="#737373" d="M 49.96875 113.472656 Z M 49.96875 121.710938 Z M 100.101562 121.710938 Z M 100.101562 113.472656 Z M 75.074219 111.761719 L 54.089844 111.761719 C 52.535156 111.761719 51.058594 112.460938 49.96875 113.472656 C 48.960938 114.558594 48.261719 115.957031 48.261719 117.589844 C 48.261719 119.222656 48.960938 120.621094 49.96875 121.710938 C 51.058594 122.71875 52.535156 123.417969 54.089844 123.417969 L 95.980469 123.417969 C 97.613281 123.417969 99.089844 122.71875 100.101562 121.710938 C 101.1875 120.621094 101.808594 119.222656 101.808594 117.589844 C 101.808594 115.957031 101.1875 114.558594 100.101562 113.472656 C 99.089844 112.460938 97.613281 111.761719 95.980469 111.761719 Z M 75.074219 111.761719 " fill-opacity="1" fill-rule="evenodd"/><path fill="#737373" d="M 93.570312 127.773438 L 56.5 127.773438 C 56.964844 129.480469 57.820312 131.035156 58.984375 132.28125 L 59.0625 132.359375 C 60.851562 134.066406 63.261719 135.15625 65.902344 135.15625 L 84.246094 135.15625 C 86.886719 135.15625 89.296875 134.066406 91.007812 132.359375 C 92.25 131.113281 93.183594 129.558594 93.570312 127.773438 Z M 93.570312 127.773438 " fill-opacity="1" fill-rule="evenodd"/><path fill="#737373" d="M 68.933594 143.472656 Z M 81.136719 143.472656 Z M 83.390625 139.507812 L 66.679688 139.507812 C 67.070312 141.0625 67.847656 142.382812 68.933594 143.472656 C 70.488281 145.027344 72.664062 145.957031 75.074219 145.957031 C 77.40625 145.957031 79.582031 145.027344 81.136719 143.472656 C 82.222656 142.382812 83 141.0625 83.390625 139.507812 Z M 83.390625 139.507812 " fill-opacity="1" fill-rule="evenodd"/><path fill="#253a59" d="M 58.832031 107.410156 L 72.820312 107.410156 C 72.585938 104.535156 71.964844 101.8125 70.953125 99.25 C 69.632812 95.984375 67.769531 92.953125 65.4375 90.3125 L 64.738281 89.613281 C 61.085938 85.570312 58.363281 82.695312 58.363281 76.011719 C 58.363281 71.425781 60.230469 67.304688 63.261719 64.273438 C 66.292969 61.242188 70.410156 59.378906 75.074219 59.378906 C 78.570312 59.378906 81.679688 60.777344 84.011719 63.109375 C 86.265625 65.363281 87.742188 68.550781 87.742188 72.046875 C 87.742188 75.542969 86.265625 78.730469 84.011719 80.984375 L 83.855469 81.140625 C 81.601562 83.316406 78.492188 84.714844 75.074219 84.714844 C 73.832031 84.714844 72.898438 83.703125 72.898438 82.539062 C 72.898438 81.296875 73.832031 80.363281 75.074219 80.363281 C 77.328125 80.363281 79.347656 79.429688 80.824219 78.03125 L 80.902344 77.875 C 82.457031 76.398438 83.390625 74.300781 83.390625 72.046875 C 83.390625 69.714844 82.457031 67.695312 80.902344 66.140625 C 79.425781 64.664062 77.328125 63.730469 75.074219 63.730469 C 71.65625 63.730469 68.546875 65.128906 66.371094 67.304688 C 64.117188 69.558594 62.714844 72.667969 62.714844 76.011719 C 62.714844 80.984375 64.894531 83.394531 67.921875 86.65625 L 68.625 87.433594 C 71.34375 90.386719 73.519531 93.886719 74.996094 97.695312 C 76.160156 100.726562 76.9375 104.066406 77.171875 107.410156 L 91.238281 107.410156 C 91.472656 102.28125 92.5625 97.382812 94.347656 92.71875 C 96.445312 87.28125 99.554688 82.382812 103.363281 78.1875 L 103.519531 78.03125 C 103.984375 77.488281 104.453125 77.019531 104.917969 76.554688 C 105.386719 76.089844 105.929688 75.621094 106.394531 75.15625 C 109.894531 71.347656 112.613281 66.839844 114.554688 62.019531 C 116.34375 57.28125 117.355469 52.074219 117.355469 46.710938 C 117.355469 34.972656 112.613281 24.402344 104.996094 16.789062 C 97.300781 9.09375 86.730469 4.351562 75.074219 4.351562 C 63.339844 4.351562 52.769531 9.09375 45.152344 16.789062 C 37.457031 24.402344 32.714844 34.972656 32.714844 46.710938 C 32.714844 52.074219 33.726562 57.28125 35.59375 62.019531 C 37.457031 66.839844 40.253906 71.347656 43.753906 75.15625 C 44.21875 75.621094 44.683594 76.089844 45.230469 76.554688 C 45.695312 77.019531 46.160156 77.566406 46.707031 78.1875 C 50.59375 82.382812 53.625 87.28125 55.722656 92.71875 C 57.507812 97.382812 58.597656 102.28125 58.832031 107.410156 Z M 63.414062 49.121094 C 64.039062 50.207031 63.726562 51.527344 62.640625 52.074219 C 61.628906 52.695312 60.308594 52.382812 59.683594 51.296875 L 47.40625 30 C 46.785156 28.988281 47.171875 27.667969 48.183594 27.046875 C 49.191406 26.425781 50.515625 26.8125 51.136719 27.824219 Z M 90.386719 51.296875 C 89.839844 52.382812 88.519531 52.695312 87.429688 52.074219 C 86.421875 51.527344 86.03125 50.207031 86.65625 49.121094 L 98.933594 27.824219 C 99.554688 26.8125 100.878906 26.425781 101.964844 27.046875 C 102.976562 27.667969 103.285156 28.988281 102.742188 30 Z M 77.25 46.632812 C 77.25 47.796875 76.238281 48.808594 75.074219 48.808594 C 73.832031 48.808594 72.898438 47.796875 72.898438 46.632812 L 72.898438 21.996094 C 72.898438 20.828125 73.832031 19.820312 75.074219 19.820312 C 76.238281 19.820312 77.25 20.828125 77.25 21.996094 Z M 87.898438 139.042969 C 87.507812 141.917969 86.1875 144.558594 84.246094 146.503906 C 81.835938 148.910156 78.648438 150.3125 75.074219 150.3125 C 71.5 150.3125 68.234375 148.910156 65.902344 146.503906 C 63.882812 144.558594 62.5625 141.917969 62.171875 139.042969 C 59.839844 138.34375 57.742188 137.097656 56.03125 135.464844 L 55.878906 135.3125 C 53.855469 133.210938 52.457031 130.570312 52.070312 127.539062 C 50.125 127.148438 48.339844 126.140625 46.9375 124.742188 C 45.074219 122.953125 43.90625 120.386719 43.90625 117.589844 C 43.90625 114.792969 45.074219 112.304688 46.9375 110.441406 C 48.804688 108.574219 51.292969 107.410156 54.089844 107.410156 L 54.476562 107.410156 C 54.246094 102.824219 53.3125 98.394531 51.679688 94.273438 C 49.816406 89.378906 47.015625 84.949219 43.519531 81.0625 C 43.054688 80.597656 42.664062 80.128906 42.121094 79.664062 C 41.730469 79.195312 41.265625 78.730469 40.722656 78.34375 L 40.566406 78.1875 C 36.679688 73.910156 33.648438 69.015625 31.550781 63.574219 C 29.453125 58.289062 28.363281 52.617188 28.363281 46.710938 C 28.363281 33.808594 33.570312 22.148438 42.042969 13.679688 C 50.515625 5.207031 62.171875 0 75.074219 0 C 87.976562 0 99.632812 5.207031 108.027344 13.679688 C 116.5 22.148438 121.707031 33.808594 121.707031 46.710938 C 121.707031 52.617188 120.617188 58.289062 118.597656 63.574219 C 116.5 69.015625 113.390625 73.910156 109.582031 78.109375 L 109.425781 78.265625 C 108.882812 78.730469 108.414062 79.195312 107.949219 79.664062 C 107.484375 80.128906 107.09375 80.519531 106.707031 80.984375 L 106.628906 81.0625 C 103.132812 84.949219 100.332031 89.378906 98.390625 94.273438 C 96.835938 98.394531 95.824219 102.824219 95.59375 107.410156 L 95.980469 107.410156 C 98.777344 107.410156 101.34375 108.574219 103.207031 110.441406 C 104.996094 112.304688 106.160156 114.792969 106.160156 117.589844 C 106.160156 120.386719 104.996094 122.953125 103.207031 124.742188 C 101.808594 126.140625 100.023438 127.148438 98 127.539062 C 97.613281 130.570312 96.136719 133.367188 94.117188 135.464844 C 92.40625 137.097656 90.308594 138.34375 87.898438 139.042969 Z M 66.679688 139.507812 C 67.070312 141.0625 67.847656 142.382812 68.933594 143.472656 C 70.488281 145.027344 72.664062 145.957031 75.074219 145.957031 C 77.40625 145.957031 79.582031 145.027344 81.136719 143.472656 C 82.222656 142.382812 83 141.0625 83.390625 139.507812 Z M 91.007812 132.359375 C 92.25 131.113281 93.183594 129.558594 93.570312 127.773438 L 56.5 127.773438 C 56.964844 129.480469 57.820312 131.035156 58.984375 132.28125 L 59.0625 132.359375 C 60.851562 134.066406 63.261719 135.15625 65.902344 135.15625 L 84.246094 135.15625 C 86.886719 135.15625 89.296875 134.066406 91.007812 132.359375 Z M 95.980469 111.761719 L 54.089844 111.761719 C 52.535156 111.761719 51.058594 112.460938 49.96875 113.472656 C 48.960938 114.558594 48.261719 115.957031 48.261719 117.589844 C 48.261719 119.222656 48.960938 120.621094 49.96875 121.710938 C 51.058594 122.71875 52.535156 123.417969 54.089844 123.417969 L 95.980469 123.417969 C 97.613281 123.417969 99.089844 122.71875 100.101562 121.710938 C 101.1875 120.621094 101.808594 119.222656 101.808594 117.589844 C 101.808594 115.957031 101.1875 114.558594 100.101562 113.472656 C 99.089844 112.460938 97.613281 111.761719 95.980469 111.761719 Z M 95.980469 111.761719 " fill-opacity="1" fill-rule="nonzero"/></svg>